<svg width="30" height="30" viewBox="0 0 30 30" fill="none" xmlns="http://www.w3.org/2000/svg">
<g clip-path="url(#clip0_229_4350)">
<mask id="mask0_229_4350" style="mask-type:alpha" maskUnits="userSpaceOnUse" x="0" y="0" width="30" height="30">
<path d="M30 0H0V30H30V0Z" fill="#D9D9D9"/>
</mask>
<g mask="url(#mask0_229_4350)">
<path d="M14.4494 7.74967L6.97786 15.2117C6.86899 15.307 6.74048 15.3613 6.59232 15.3744C6.44416 15.3875 6.3106 15.3324 6.19162 15.209C6.06476 15.0857 6.00088 14.9538 6.00001 14.8136C5.99913 14.6735 6.06059 14.5416 6.18439 14.4183L14.3348 6.29659C14.4326 6.19925 14.5359 6.12544 14.645 6.07513C14.7539 6.02505 14.8752 6 15.0088 6C15.1423 6 15.2628 6.02505 15.3704 6.07513C15.4778 6.12544 15.5804 6.19925 15.6781 6.29659L23.8286 14.4183C23.9338 14.523 23.9906 14.649 23.9992 14.7962C24.0075 14.9437 23.9506 15.0813 23.8286 15.209C23.7002 15.3324 23.5664 15.394 23.4272 15.394C23.2879 15.394 23.1619 15.3324 23.0493 15.209L15.5636 7.74967V23.4449C15.5636 23.6065 15.5113 23.7395 15.4068 23.8439C15.3022 23.9479 15.1686 24 15.0061 24C14.8438 24 14.7103 23.9479 14.6058 23.8439C14.5016 23.7395 14.4494 23.6065 14.4494 23.4449V7.74967Z" fill="white"/>
</g>
</g>
<defs>
<clipPath id="clip0_229_4350">
<rect width="30" height="30" fill="white"/>
</clipPath>
</defs>
</svg>
