<svg width="130" height="16" viewBox="0 0 130 16" fill="none" xmlns="http://www.w3.org/2000/svg">
<path d="M4.43717 16C0.578327 16 -0.143338 13.6413 0.0214215 10.9601H3.13643C3.13643 12.4404 3.1981 13.6834 4.91121 13.6834C5.96336 13.6834 6.47883 12.9753 6.47883 11.9246C6.47883 9.13628 0.207378 8.96501 0.207378 4.3538C0.207378 1.93102 1.32119 0.00100156 5.1174 0.00100156C8.15052 0.00100156 9.65648 1.41621 9.45029 4.65527H6.41717C6.41717 3.49746 6.23121 2.31762 4.97288 2.31762C3.96216 2.31762 3.36382 2.89653 3.36382 3.9692C3.36382 6.90779 9.63528 6.65039 9.63528 11.518C9.63528 15.5283 6.80932 16 4.4362 16M10.7298 15.7426L14.8556 0.258404H18.961L23.0049 15.7426H19.7241L18.8984 12.3112H14.6484L13.8024 15.7426H10.7289H10.7298ZM16.7334 3.23906H16.692L15.2689 9.93052H18.2394L16.7334 3.23906ZM24.4077 15.7426V0.258404H29.4209L31.7525 10.7889H31.794L34.2702 0.258404H39.1185V15.7426H36.0854V3.79693H36.044L33.1766 15.7426H30.2061L27.4823 3.79693H27.4409V15.7426H24.4077ZM45.7002 16C41.8424 16 41.1197 13.6413 41.2855 10.9601H44.4005C44.4005 12.4404 44.4621 13.6834 46.1753 13.6834C47.2274 13.6834 47.7429 12.9753 47.7429 11.9246C47.7429 9.13628 41.4714 8.96501 41.4714 4.3538C41.4714 1.93002 42.5852 0 46.3814 0C49.4146 0 50.9205 1.41521 50.7143 4.65427H47.6812C47.6812 3.49646 47.4953 2.31662 46.2369 2.31662C45.2262 2.31662 44.6279 2.89552 44.6279 3.9682C44.6279 6.90679 50.8993 6.64939 50.8993 11.517C50.8993 15.5273 48.0734 15.999 45.7002 15.999M63.1956 0.258404V11.2386C63.1956 13.5552 61.9372 16 58.141 16C54.7158 16 53.0653 14.1551 53.0653 11.2386V0.258404H56.1803V11.0242C56.1803 12.9332 56.9646 13.6834 58.0986 13.6834C59.4601 13.6834 60.0796 12.7399 60.0796 11.0242V0.258404H63.1946H63.1956ZM65.7537 15.7426V0.258404H69.9623L73.9232 10.9812H73.9647V0.258404H76.8735V15.7426H72.768L68.7039 4.4189H68.6625V15.7426H65.7537ZM86.3024 5.01984C86.3226 3.5826 86.0962 2.31762 84.4457 2.31762C82.5062 2.31762 82.5062 5.04088 82.5062 8.04357C82.5062 12.8901 82.96 13.7485 84.7338 13.7485C85.2493 13.7485 85.8071 13.6203 86.2812 13.448V10.0167H84.5893V7.63593H89.3962V15.4852C88.5502 15.6565 86.4247 16 85.1876 16C79.9471 16 79.3487 13.7485 79.3487 7.8723C79.3487 3.9692 79.5347 0.00200313 84.6307 0.00200313C87.684 0.00200313 89.5821 1.78178 89.3962 5.01984H86.3014H86.3024ZM100.724 16C96.8662 16 96.1436 13.6413 96.3093 10.9601H99.4244C99.4244 12.4404 99.486 13.6834 101.199 13.6834C102.251 13.6834 102.767 12.9753 102.767 11.9246C102.767 9.13628 96.4953 8.96501 96.4953 4.3538C96.4943 1.93102 97.6081 0.00100156 101.404 0.00100156C104.437 0.00100156 105.943 1.41621 105.737 4.65527H102.704C102.704 3.49746 102.518 2.31762 101.26 2.31762C100.249 2.31762 99.6508 2.89653 99.6508 3.9692C99.6508 6.90779 105.922 6.65039 105.922 11.518C105.922 15.5283 103.095 16 100.723 16M108.213 0.258404H113.413C117.498 0.258404 118.261 3.08883 118.261 7.91437C118.261 10.2951 118.612 15.7426 113.289 15.7426H108.213V0.258404ZM111.328 13.3619H112.834C114.733 13.3619 115.103 11.8816 115.103 8.0005C115.103 5.14804 115.103 2.63912 112.938 2.63912H111.328V13.3619ZM124.801 16C120.943 16 120.221 13.6413 120.386 10.9601H123.501C123.501 12.4404 123.563 13.6834 125.276 13.6834C126.328 13.6834 126.844 12.9753 126.844 11.9246C126.844 9.13628 120.572 8.96501 120.572 4.3538C120.572 1.93002 121.686 0 125.482 0C128.515 0 130.021 1.41521 129.815 4.65427H126.782C126.782 3.49646 126.596 2.31662 125.338 2.31662C124.327 2.31662 123.729 2.89552 123.729 3.9682C123.729 6.90679 130 6.64939 130 11.517C130 15.5273 127.173 15.999 124.801 15.999" fill="black"/>
</svg>
