<svg xmlns="http://www.w3.org/2000/svg" width="25" height="25" viewBox="0 0 25 25">
  <g id="logo_linkedin" transform="translate(-1437.441 -26.978)">
    <g id="그룹_105282" data-name="그룹 105282" transform="translate(1437.441 26.531)">
      <g id="그룹_105284" data-name="그룹 105284" transform="translate(0 0)">
        <rect id="사각형_17344" data-name="사각형 17344" width="25" height="25" transform="translate(0 0.446)" fill="none"/>
        <path id="패스_28068" data-name="패스 28068" d="M957.506,2035.143c.093.008.113-.045.14-.086a5.2,5.2,0,0,1,4.756-2.469,8.322,8.322,0,0,1,2.13.286,4.591,4.591,0,0,1,3.26,3.431,14.476,14.476,0,0,1,.434,3.961c.006,2.783-.008,5.566,0,8.35,0,.26-.068.33-.327.328q-2.159-.019-4.317,0c-.245,0-.312-.061-.311-.309q.014-3.988,0-7.975a8,8,0,0,0-.164-1.707,2.321,2.321,0,0,0-2.791-2,2.658,2.658,0,0,0-2.538,2.649,10.094,10.094,0,0,0-.076,1.278c0,2.575,0,5.15.008,7.725,0,.281-.077.343-.347.34q-2.158-.021-4.317,0c-.251,0-.309-.074-.309-.315q.01-7.662,0-15.326c0-.229.037-.327.3-.324q2.081.021,4.161,0c.243,0,.3.077.293.3-.015.521-.006,1.043,0,1.564C957.492,2034.947,957.5,2035.048,957.506,2035.143Z" transform="translate(-943.573 -2024.466)"/>
        <path id="패스_28069" data-name="패스 28069" d="M943.145,2041.025c0-2.543.005-5.086-.007-7.63,0-.28.073-.345.346-.343q2.159.021,4.317,0c.254,0,.31.079.309.318q-.009,7.661,0,15.324c0,.226-.034.326-.3.324q-2.189-.022-4.38,0c-.24,0-.292-.071-.291-.3Q943.151,2044.871,943.145,2041.025Z" transform="translate(-942.072 -2024.539)"/>
        <path id="패스_28070" data-name="패스 28070" d="M948.437,2026.511a2.874,2.874,0,1,1-2.861-2.868A2.886,2.886,0,0,1,948.437,2026.511Z" transform="translate(-942.002 -2023.068)"/>
      </g>
    </g>
  </g>
</svg>
