<svg xmlns="http://www.w3.org/2000/svg" width="32" height="32" viewBox="0 0 32 32">
  <g id="그룹_1" data-name="그룹 1" transform="translate(0.146 0.144)">
    <path id="교차_1" data-name="교차 1" d="M17.939,20.965h4.328l.9-4.907H17.941V14.322c0-2.593,1.013-3.59,3.636-3.59.815,0,1.472.02,1.849.06V6.342a17.633,17.633,0,0,0-3.479-.4c-5.347,0-7.811,2.533-7.811,8v2.115h-3.3v4.907h3.3v10.68A16.053,16.053,0,0,1,.3,19.157c0-.016-.007-.032-.009-.048l0-.018A16.2,16.2,0,0,1,0,16.058c0-.263.006-.524.019-.784A16.27,16.27,0,0,1,.212,13.46a15.994,15.994,0,0,1,31.769,1.818h0c0,.03,0,.061,0,.091,0,0,0,.01,0,.015q0,.04,0,.081v.023c0,.024,0,.048,0,.072V15.6c0,.021,0,.041,0,.062V15.7c0,.02,0,.04,0,.06s0,.03,0,.046v.053q0,.027,0,.054c0,.016,0,.031,0,.047,0,.034,0,.066,0,.1s0,.066,0,.1c0,.013,0,.026,0,.039s0,.04,0,.06,0,.031,0,.047v.051c0,.018,0,.038,0,.056v.04c0,.021,0,.041,0,.062v.033c0,.024,0,.048,0,.072,0,.006,0,.012,0,.019,0,.027,0,.055,0,.083,0,0,0,0,0,.006a16.057,16.057,0,0,1-4.614,10.629l-.03.031-.029.029a16.073,16.073,0,0,1-3.093,2.424l-.058.035-.014.009A15.919,15.919,0,0,1,17.939,32Z" transform="translate(-0.146 -0.144)"/>
  </g>
</svg>
