<svg xmlns="http://www.w3.org/2000/svg" width="28" height="28" viewBox="0 0 28 28">
  <path id="Instagram_Glyph_White" d="M10.7,2.6a10.211,10.211,0,0,0-3.4.657,7.16,7.16,0,0,0-4.087,4.1,10.286,10.286,0,0,0-.644,3.4c-.066,1.49-.08,1.97-.073,5.771s.024,4.278.1,5.772a10.234,10.234,0,0,0,.657,3.4,7.156,7.156,0,0,0,4.1,4.087,10.278,10.278,0,0,0,3.4.644c1.49.065,1.97.08,5.771.073s4.279-.024,5.773-.095a10.243,10.243,0,0,0,3.395-.657,7.155,7.155,0,0,0,4.086-4.1,10.24,10.24,0,0,0,.644-3.4c.065-1.494.081-1.971.073-5.773s-.024-4.278-.1-5.771a10.225,10.225,0,0,0-.657-3.4,6.873,6.873,0,0,0-1.619-2.477,6.832,6.832,0,0,0-2.483-1.609,10.245,10.245,0,0,0-3.4-.644c-1.49-.064-1.97-.081-5.772-.074s-4.278.024-5.771.1m.164,25.309a7.769,7.769,0,0,1-2.6-.476A4.359,4.359,0,0,1,6.652,26.39,4.312,4.312,0,0,1,5.6,24.782a7.754,7.754,0,0,1-.487-2.6c-.069-1.475-.084-1.918-.092-5.656s.006-4.18.071-5.656a7.748,7.748,0,0,1,.476-2.6A4.335,4.335,0,0,1,6.614,6.659a4.322,4.322,0,0,1,1.608-1.05,7.752,7.752,0,0,1,2.6-.487c1.476-.07,1.919-.084,5.656-.092s4.181.006,5.658.071a7.743,7.743,0,0,1,2.6.476A4.635,4.635,0,0,1,27.4,8.23a7.713,7.713,0,0,1,.486,2.6c.07,1.476.086,1.919.093,5.656s-.006,4.181-.071,5.656a7.779,7.779,0,0,1-.476,2.6A4.637,4.637,0,0,1,24.776,27.4a7.755,7.755,0,0,1-2.6.487c-1.476.069-1.919.084-5.657.092s-4.18-.007-5.656-.071M22.278,9.021a1.68,1.68,0,1,0,1.677-1.683,1.68,1.68,0,0,0-1.677,1.683m-12.967,7.5a7.189,7.189,0,1,0,7.175-7.2,7.188,7.188,0,0,0-7.175,7.2m2.522-.005a4.667,4.667,0,1,1,4.676,4.658,4.667,4.667,0,0,1-4.676-4.658" transform="translate(-2.499 -2.503)"/>
</svg>
