<svg xmlns="http://www.w3.org/2000/svg" width="22.814" height="25.009" viewBox="0 0 22.814 25.009">
  <g id="그룹_137268" data-name="그룹 137268" transform="translate(0 0)">
    <path id="패스_205401" data-name="패스 205401" d="M6291.4,559.059a5.587,5.587,0,0,0-9.845-3.106l-4.368,5.2a5.566,5.566,0,0,0-.4.544,5.449,5.449,0,0,0-.649,1.375,5.525,5.525,0,0,0-.233,2.16c.012.139.028.277.05.411a5.548,5.548,0,0,0,1.923,3.383l.085.07.032.026a1.244,1.244,0,0,0,.945.257,1.237,1.237,0,0,0,.6-2.19l-.006-.005-.065-.053a3.081,3.081,0,0,1-1.032-1.694,3.124,3.124,0,0,1-.07-.9,3.073,3.073,0,0,1,.684-1.747l.035-.044,4.368-5.2a3.068,3.068,0,0,1,1.854-1.066c.083-.014.171-.026.259-.033a3.113,3.113,0,0,1,2.655,5.1l-2.987,3.558a1.238,1.238,0,0,0,.233,1.806,1.245,1.245,0,0,0,1.663-.215l2.987-3.558A5.548,5.548,0,0,0,6291.4,559.059Z" transform="translate(-6268.604 -553.958)"/>
    <path id="패스_205402" data-name="패스 205402" d="M5706.842,1327.169a5.542,5.542,0,0,0-1.923-3.383c-.039-.032-.077-.064-.118-.1a1.242,1.242,0,0,0-.944-.257,1.237,1.237,0,0,0-.6,2.19l.006.006c.021.017.044.035.064.053a3.117,3.117,0,0,1,.418,4.343.465.465,0,0,1-.035.042l-4.367,5.2a3.069,3.069,0,0,1-1.854,1.066c-.083.014-.171.025-.26.033a3.113,3.113,0,0,1-2.654-5.1l2.986-3.558a1.238,1.238,0,1,0-1.9-1.592l-2.986,3.559a5.586,5.586,0,0,0,.688,7.872l.083.07a5.59,5.59,0,0,0,7.789-.757l4.367-5.2a5.581,5.581,0,0,0,.4-.544,5.571,5.571,0,0,0,.882-3.534C5706.882,1327.441,5706.863,1327.3,5706.842,1327.169Z" transform="translate(-5691.371 -1313.848)"/>
  </g>
</svg>
